<svg width="100%"  viewBox="0 0 1014 477" fill="none" xmlns="http://www.w3.org/2000/svg">
<g id="Jasmine">
<rect id="Rectangle 3" x="0.5" y="0.5" width="1013" height="476" stroke="black"/>
<g id="CarpetCard3" filter="url(#filter0_d_31_259)">
<g id="Rectangle 6">
<g filter="url(#filter1_i_31_259)">
<rect x="647.19" y="124.893" width="97.5265" height="137.259" rx="8" transform="rotate(17.9946 647.19 124.893)" fill="#ECF1F4"/>
</g>
<rect x="648.795" y="128.043" width="92.5265" height="132.259" rx="5.5" transform="rotate(17.9946 648.795 128.043)" stroke="#FFFBFA" stroke-width="5"/>
</g>
<g id="carbon:car" clip-path="url(#clip0_31_259)">
<path id="Vector" d="M705.158 172.529L694.434 164.584L691.309 156.758C691.033 156.092 690.612 155.496 690.077 155.013C689.542 154.53 688.906 154.172 688.215 153.965L675.778 150.218C675.018 149.989 674.213 149.949 673.433 150.102C672.654 150.255 671.924 150.597 671.306 151.097L665.222 156.021C663.955 157.045 663.027 158.428 662.558 159.989L658.859 172.265C658.735 172.677 658.78 173.122 658.983 173.502C659.187 173.881 659.533 174.164 659.946 174.289L663.277 175.292C663.214 176.729 663.631 178.146 664.463 179.319C665.295 180.492 666.494 181.354 667.871 181.769C669.248 182.184 670.724 182.128 672.066 181.61C673.407 181.092 674.538 180.141 675.278 178.908L685.052 181.852C684.988 183.289 685.405 184.706 686.237 185.879C687.069 187.052 688.269 187.914 689.646 188.329C691.023 188.744 692.499 188.688 693.84 188.17C695.182 187.651 696.312 186.701 697.053 185.468L700.384 186.471C700.797 186.596 701.242 186.551 701.621 186.347C702.001 186.143 702.284 185.797 702.408 185.385L705.747 174.303C705.843 173.983 705.838 173.64 705.733 173.323C705.628 173.006 705.427 172.728 705.158 172.529ZM668.809 178.655C668.194 178.47 667.648 178.106 667.239 177.611C666.83 177.115 666.578 176.509 666.514 175.869C666.45 175.23 666.577 174.586 666.878 174.019C667.18 173.452 667.643 172.987 668.21 172.683C668.776 172.379 669.419 172.249 670.059 172.311C670.698 172.373 671.305 172.623 671.803 173.03C672.3 173.436 672.666 173.981 672.853 174.596C673.041 175.21 673.042 175.867 672.857 176.482C672.607 177.306 672.041 177.998 671.282 178.405C670.524 178.813 669.634 178.903 668.809 178.655V178.655ZM690.584 185.215C689.969 185.03 689.422 184.666 689.014 184.17C688.605 183.675 688.353 183.069 688.288 182.429C688.224 181.79 688.351 181.146 688.653 180.579C688.955 180.011 689.418 179.546 689.984 179.243C690.55 178.939 691.194 178.809 691.833 178.871C692.473 178.933 693.08 179.183 693.577 179.589C694.075 179.996 694.44 180.541 694.628 181.156C694.816 181.77 694.817 182.427 694.632 183.042C694.382 183.866 693.816 184.558 693.057 184.966C692.298 185.373 691.409 185.463 690.584 185.215ZM699.766 182.892L697.99 182.357C698.054 180.92 697.637 179.503 696.805 178.33C695.973 177.157 694.773 176.295 693.396 175.88C692.019 175.465 690.543 175.521 689.202 176.04C687.86 176.558 686.73 177.509 685.989 178.742L676.215 175.797C676.279 174.36 675.862 172.943 675.03 171.77C674.198 170.597 672.999 169.735 671.622 169.32C670.245 168.905 668.769 168.961 667.427 169.48C666.085 169.998 664.955 170.949 664.215 172.182L662.438 171.647L665.668 160.926C665.95 159.989 666.508 159.159 667.268 158.544L673.35 153.623C673.556 153.456 673.799 153.342 674.059 153.291C674.319 153.239 674.588 153.252 674.841 153.329L687.278 157.076C687.504 157.143 687.713 157.259 687.89 157.416C688.067 157.573 688.207 157.767 688.3 157.984L691.588 166.217C691.7 166.497 691.887 166.74 692.129 166.92L702.307 174.459L699.766 182.892Z" fill="#24ECC0"/>
</g>
<rect id="Rectangle 11" width="71.4848" height="6.32683" rx="3.16341" transform="matrix(0.943415 0.331616 -0.471776 0.881719 621.985 242.88)" fill="#C4C4C4"/>
<rect id="Rectangle 12" width="45.1653" height="6.32683" rx="3.16341" transform="matrix(0.943415 0.331616 -0.471776 0.881719 627.18 235)" fill="#C4C4C4"/>
</g>
<g id="CarpetCard1" filter="url(#filter2_d_31_259)">
<g id="Rectangle 4">
<g filter="url(#filter3_i_31_259)">
<rect x="329.736" y="101.451" width="81" height="114" rx="8" transform="rotate(-34.2611 329.736 101.451)" fill="#ECF1F4"/>
</g>
<rect x="333.21" y="102.11" width="76" height="109" rx="5.5" transform="rotate(-34.2611 333.21 102.11)" stroke="#FFFBFA" stroke-width="5"/>
</g>
<path id="Vector_2" d="M387.768 88.1233L383.375 91.1801L380.263 88.9394C380.049 88.7865 379.794 88.7031 379.533 88.7006C379.273 88.698 379.018 88.7764 378.805 88.925L368.895 95.8209C368.459 96.1243 368.261 96.6742 368.405 97.1906L369.421 100.89L365.028 103.947C363.6 104.94 363.259 106.916 364.264 108.361L374.64 123.271C375.645 124.716 377.616 125.082 379.044 124.089L401.784 108.265C403.212 107.272 403.553 105.296 402.548 103.851L392.173 88.941C391.167 87.4957 389.196 87.1298 387.768 88.1233ZM400.222 105.47C400.322 105.613 400.288 105.812 400.146 105.911L377.406 121.735C377.264 121.833 377.065 121.797 376.965 121.653L366.59 106.743C366.49 106.599 366.524 106.4 366.666 106.301L372.697 102.105L372.162 100.157L371.441 97.5435L379.532 91.9131L381.733 93.4976L383.373 94.6762L389.406 90.4775C389.549 90.3786 389.747 90.4154 389.847 90.5593L400.222 105.47ZM379.493 100.482C376.637 102.469 375.954 106.419 377.965 109.31C379.976 112.2 383.918 112.932 386.773 110.945C389.629 108.958 390.313 105.008 388.301 102.117C386.29 99.2269 382.348 98.4951 379.493 100.482ZM385.317 108.853C383.605 110.044 381.238 109.604 380.032 107.871C378.826 106.138 379.237 103.766 380.949 102.575C382.661 101.383 385.028 101.823 386.234 103.556C387.44 105.289 387.029 107.661 385.317 108.853Z" fill="#24ECC0"/>
<rect id="Rectangle 9" x="393.25" y="175.815" width="55.9746" height="6.13323" rx="3.06661" transform="rotate(-34.562 393.25 175.815)" fill="#C4C4C4"/>
<rect id="Rectangle 10" x="388.718" y="168.03" width="35.3657" height="6.13323" rx="3.06661" transform="rotate(-34.562 388.718 168.03)" fill="#C4C4C4"/>
</g>
<g id="CarpetCard2" filter="url(#filter4_d_31_259)">
<g id="Rectangle 5">
<g filter="url(#filter5_i_31_259)">
<rect x="295.251" y="371.533" width="97.5265" height="137.259" rx="8" transform="rotate(-60.6778 295.251 371.533)" fill="#ECF1F4"/>
</g>
<rect x="298.655" y="370.578" width="92.5265" height="132.259" rx="5.5" transform="rotate(-60.6778 298.655 370.578)" stroke="#FFFBFA" stroke-width="5"/>
</g>
<g id="dashicons:money-alt" clip-path="url(#clip1_31_259)">
<path id="Vector_3" d="M344.734 342.534C344.122 343.175 343.324 343.709 342.446 343.95C341.94 344.404 341.274 344.272 340.901 344.059C340.528 343.847 340.074 343.342 340.1 342.862C340.045 342.09 339.991 341.318 340.496 340.864C341.133 339.744 342.224 339.13 343.289 338.995L342.005 336.041C341.127 336.282 340.435 336.63 339.743 336.977C339.051 337.324 338.44 337.965 338.015 338.711L335.402 337.224L334.128 339.464L336.741 340.951C336.396 341.99 336.425 343.242 336.747 344.413C337.255 345.691 338.056 346.888 339.282 347.338C340.402 347.975 341.734 348.239 342.906 347.918C344.37 347.516 345.673 346.528 346.87 345.727C347.375 345.273 348.173 344.739 348.865 344.391C349.451 344.231 350.117 344.362 350.677 344.681C351.237 345 351.69 345.505 352.038 346.197C352.279 347.075 352.041 347.928 351.722 348.488C351.297 349.234 350.58 350.061 349.701 350.302C349.009 350.65 348.131 350.891 347.359 350.946L348.35 353.98C349.415 353.845 350.293 353.604 351.278 353.176C352.369 352.562 353.566 351.76 354.203 350.641L356.629 352.021L357.797 349.968L354.998 348.375C355.449 347.149 355.42 345.898 355.098 344.726C354.696 343.262 353.521 341.853 352.215 341.109C351.095 340.472 349.576 340.102 348.299 340.61C346.835 341.013 345.744 341.627 344.734 342.534V342.534ZM331.033 336.22C326.36 344.432 329.255 354.973 337.467 359.646C345.678 364.319 356.22 361.424 360.893 353.212C365.565 345.001 362.67 334.459 354.459 329.786C346.247 325.113 335.705 328.009 331.033 336.22ZM358.84 352.044C354.804 359.136 345.727 361.629 338.635 357.593C331.543 353.558 329.05 344.48 333.085 337.388C337.121 330.297 346.199 327.803 353.29 331.839C360.382 335.875 362.875 344.952 358.84 352.044V352.044Z" fill="#24ECC0"/>
</g>
<rect id="Rectangle 7" x="404.04" y="419.795" width="76.3976" height="8.37101" rx="4.1855" transform="rotate(-61.4026 404.04 419.795)" fill="#C4C4C4"/>
<rect id="Rectangle 8" x="393.723" y="413.107" width="48.2693" height="8.37101" rx="4.1855" transform="rotate(-61.4026 393.723 413.107)" fill="#C4C4C4"/>
</g>
<g id="Note2">
<g id="Vector 34" filter="url(#filter6_d_31_259)">
<path d="M897.333 297.863C892.34 287.103 890.05 285.341 886.164 283.854C886.516 303.745 885.75 314.43 880.46 331.59C877.684 346.66 879.63 354.886 885.563 369.4C896.316 383.578 902.541 390.894 914.04 402.661C907.186 378.408 903.259 368.848 906.105 360.535C908.849 343.586 912.11 333.828 919.763 316.151C915.919 315.116 913.679 314.197 909.571 312.104C905.206 308.847 902.536 305.732 897.333 297.863Z" fill="#0FC473"/>
</g>
<path id="Vector 35" d="M907.39 314.429C907.674 314.445 912.678 317.393 915.628 317.797C910.588 329.376 908.398 336.566 905.261 350.238C902.124 363.436 902.627 369.273 905.266 378.48C907.659 386.286 909.056 390.425 911.59 397.626" stroke="#24ECC0" stroke-width="2"/>
<path id="Vector 36" d="M911.206 397.377C901.117 387.287 895.587 380.806 886.025 367.262C879.929 352.606 878.837 344.065 883.055 327.978C886.553 314.444 887.72 305.737 887.524 287.005C893.571 300.695 898.07 306.463 907.573 314.212" stroke="#24ECC0" stroke-width="2"/>
<ellipse id="Ellipse 2" cx="891.064" cy="340.721" rx="14.1746" ry="5.19227" transform="rotate(101.202 891.064 340.721)" fill="#24ECC0"/>
</g>
<g id="Note2_2">
<g id="Vector 34_2" filter="url(#filter7_d_31_259)">
<path d="M168.98 336.161C174.772 328.208 175.128 325.839 174.642 322.423C160.36 330.686 152.304 334.432 137.732 337.505C125.687 341.56 120.506 346.283 112.37 356.428C106.418 369.933 103.62 377.393 99.7174 390.468C114.543 375.734 119.895 369.038 127.069 367.754C140.463 362.92 148.851 361.356 164.751 359.788C163.953 356.584 163.718 354.59 163.582 350.768C164.186 346.292 165.369 343.102 168.98 336.161Z" fill="#0FC473"/>
</g>
<path id="Vector 35_2" d="M161.017 350.123C161.12 350.336 160.997 355.151 161.892 357.452C151.467 358.46 145.372 359.766 134.195 362.996C123.362 366.035 119.332 368.75 113.718 374.37C109.022 379.248 106.583 381.928 102.382 386.665" stroke="#24ECC0" stroke-width="2"/>
<path id="Vector 36_2" d="M102.408 386.285C105.662 374.908 108.135 368.289 114.106 355.903C122.279 345.581 128.032 341.351 141.396 337.932C152.618 335.02 159.401 332.361 172.904 324.677C165.412 334.573 163.041 340.158 161.249 350.169" stroke="#24ECC0" stroke-width="2"/>
<ellipse id="Ellipse 2_2" cx="135.38" cy="348.87" rx="11.7561" ry="4.30637" transform="rotate(162.161 135.38 348.87)" fill="#24ECC0"/>
</g>
<g id="Note2_3">
<g id="Vector 34_3" filter="url(#filter8_d_31_259)">
<path d="M200.291 194.894C210.121 194.474 212.197 193.277 214.567 190.769C199.208 184.739 191.26 180.768 179.782 171.279C169.109 164.378 162.188 163.265 149.183 163.216C134.91 166.969 127.33 169.423 114.669 174.511C135.43 176.938 144.002 176.956 149.473 181.77C161.596 189.241 168.043 194.831 179.17 206.295C181.18 203.676 182.594 202.25 185.5 199.764C189.379 197.45 192.611 196.39 200.291 194.894Z" fill="#0FC473"/>
</g>
<path id="Vector 35_3" d="M184.408 197.356C184.306 197.569 180.461 200.471 179.218 202.604C171.938 195.074 167.12 191.118 157.633 184.384C148.51 177.8 143.877 176.337 135.983 175.443C129.242 174.806 125.626 174.566 119.304 174.228" stroke="#24ECC0" stroke-width="2"/>
<path id="Vector 36_3" d="M119.617 174.012C130.546 169.474 137.266 167.288 150.676 164.248C163.841 164.216 170.733 166.083 181.729 174.412C190.996 181.379 197.3 185.031 211.721 190.814C199.312 191.113 193.466 192.735 184.517 197.566" stroke="#24ECC0" stroke-width="2"/>
<ellipse id="Ellipse 2_3" cx="169.425" cy="176.515" rx="11.7561" ry="4.30637" transform="rotate(-146.35 169.425 176.515)" fill="#24ECC0"/>
</g>
<g id="Note1">
<g id="Vector 34_4" filter="url(#filter9_d_31_259)">
<path d="M867.309 107.732C858.862 108.549 857.13 109.677 855.205 111.947C868.713 116.427 875.742 119.479 886.068 127.119C895.581 132.567 901.594 133.205 912.796 132.643C924.915 128.749 931.329 126.283 941.998 121.314C924.005 120.187 916.621 120.569 911.686 116.677C900.898 110.805 895.086 106.29 884.971 96.9318C883.361 99.2809 882.209 100.574 879.822 102.85C876.589 105.024 873.854 106.087 867.309 107.732Z" fill="#0FC473"/>
</g>
<path id="Vector 35_4" d="M880.874 104.874C880.953 104.686 884.129 102.008 885.101 100.113C891.72 106.261 896.053 109.444 904.536 114.804C912.699 120.052 916.758 121.097 923.598 121.5C929.433 121.736 932.558 121.775 938.019 121.773" stroke="#24ECC0" stroke-width="2"/>
<path id="Vector 36_4" d="M937.76 121.973C928.558 126.389 922.872 128.584 911.463 131.824C900.125 132.462 894.103 131.174 884.246 124.511C875.942 118.94 870.343 116.087 857.654 111.776C868.328 110.943 873.287 109.274 880.771 104.699" stroke="#24ECC0" stroke-width="2"/>
<ellipse id="Ellipse 2_4" cx="894.746" cy="122.128" rx="10.1399" ry="3.71432" transform="rotate(30.5665 894.746 122.128)" fill="#24ECC0"/>
</g>
<g id="CarpetAndGirl">
<g id="CarpetGirl">
<path id="Vector 40" d="M464.5 319L480 292.5H435L427.5 311L464.5 319Z" fill="#FFD3DA"/>
<path id="Vector 45" d="M436.5 165.5C427.89 178.011 428.243 185.288 433.5 198.5C470.688 218.995 491.737 217.86 529.5 202C540.284 194.274 545.663 189.646 537.5 173.5C529.37 168.319 526.641 165.134 528 158.5C530.008 146.563 529.595 139.981 526 128.5C508.581 106.985 498.585 98.363 463.5 130.5C464.177 139.384 457.334 147.443 436.5 165.5Z" fill="black" stroke="#C5A7B0" stroke-width="0.3"/>
<path id="Vector 42" d="M491.5 206.5C515.421 221.383 530.396 226.071 559 230L562 253L510.5 242C507.514 247.194 505.254 249.379 501 253L426.5 237.5C427.968 232.049 429.393 228.984 433.5 223.5C421.836 228.106 410.666 233.312 386.5 245L383.5 237.5C405.133 207.77 420.013 194.929 464.5 197C468.055 193.018 469.347 190.055 469 182C470.282 164.33 472.539 155.118 485 142.5C494.511 143.307 498.463 141.892 504.5 138C509.174 146.312 512.792 149.665 520.5 154C519.063 183.79 513.782 193.216 494.5 194C490.168 198.598 489.861 201.367 491.5 206.5Z" fill="#FFD3DA"/>
<g id="necklace">
<path id="Vector 47" d="M450 196C452.539 194.682 453.961 194.638 456.5 196C457.376 202.19 458.184 205.609 464 211C467.492 215.751 470.762 217.452 480 218C491.322 217.073 495.006 215.19 498 210C502.282 208.89 503.544 209.659 505 212C498.667 222.647 492.885 226.486 477 228C467.032 227.356 462.805 225.41 456.5 220.5C451.215 214.211 449.982 208.62 450 196Z" fill="#1D866D" stroke="#55E4C8" stroke-dasharray="5 5"/>
<path id="Ellipse 3" d="M477.128 223.332C476.358 225.6 475.034 227.417 473.542 228.531C472.048 229.646 470.431 230.027 469.015 229.546C467.599 229.065 466.549 227.778 466.043 225.984C465.538 224.192 465.595 221.945 466.366 219.677C467.136 217.408 468.459 215.591 469.951 214.477C471.445 213.362 473.062 212.981 474.478 213.462C475.894 213.943 476.944 215.23 477.45 217.024C477.956 218.816 477.898 221.063 477.128 223.332Z" fill="#55E4C8" stroke="#1E6552"/>
</g>
<path id="Vector 41" d="M513.5 243C494.864 261.922 488.584 272.672 482 292C462.177 293.975 451.261 293.738 432.5 288.5L426 238C437.582 221.768 446.251 228.641 462 243C476.012 227.931 486.502 227.811 508.5 238C521.328 230.728 525.758 226.188 529 218.5C536.379 218.488 538.124 220.46 540 225C533.972 232.428 529.382 236.481 513.5 243Z" fill="#42E5D0"/>
<g id="Vector 43" filter="url(#filter10_d_31_259)">
<path d="M453.5 217L388.5 232C370.009 247.526 372.534 251.209 397 250L453.5 229.5C469.004 229.679 480.246 223.765 489.5 225.5C491.358 224.211 491.32 223.691 490 223C487.5 223.5 479 223 481 221.5C484.285 222.351 489.158 222.294 491 221.5C492.462 221.157 492.693 220.828 492 220C488.313 219.668 485 220 482 219.5C479.5 219.083 477.5 217 481.5 217.5C485.5 218 486.865 219.775 492 217.5C493.922 216.485 493.378 216.026 492.5 215.5C486.701 215.961 486.205 215.889 481.5 215C479.388 213.534 478.695 213.325 481.5 213C487.5 214 487.642 215.962 493.5 214C495.476 211.725 495.754 211.668 493.5 210.5C489.5 211.5 482 208.5 468.5 209.5C470.775 206.933 470.86 203.433 472.5 199C473.034 197.467 472.801 196.911 470.5 197C465.122 204.335 461.477 208.686 453.5 217Z" fill="#FECFDD"/>
<path d="M453.5 217L388.5 232C370.009 247.526 372.534 251.209 397 250L453.5 229.5C469.004 229.679 480.246 223.765 489.5 225.5C491.358 224.211 491.32 223.691 490 223C487.5 223.5 479 223 481 221.5C484.285 222.351 489.158 222.294 491 221.5C492.462 221.157 492.693 220.828 492 220C488.313 219.668 485 220 482 219.5C479.5 219.083 477.5 217 481.5 217.5C485.5 218 486.865 219.775 492 217.5C493.922 216.485 493.378 216.026 492.5 215.5C486.701 215.961 486.205 215.889 481.5 215C479.388 213.534 478.695 213.325 481.5 213C487.5 214 487.642 215.962 493.5 214C495.476 211.725 495.754 211.668 493.5 210.5C489.5 211.5 482 208.5 468.5 209.5C470.775 206.933 470.86 203.433 472.5 199C473.034 197.467 472.801 196.911 470.5 197C465.122 204.335 461.477 208.686 453.5 217Z" stroke="#C5A7B0" stroke-width="0.3"/>
</g>
<path id="Vector 44" d="M630.951 225.401L557.5 229.737C537.054 242.579 536.6 249.841 561 252L629.236 237.782C644.57 240.087 656.517 235.771 665.445 238.759C667.462 237.737 667.496 237.216 666.283 236.351C663.738 236.504 655.387 234.842 657.574 233.631C660.711 234.925 665.546 235.536 667.48 235.003C668.975 234.863 669.249 234.569 668.676 233.654C665.069 232.819 661.742 232.694 658.839 231.787C656.42 231.031 654.724 228.693 658.618 229.737C662.512 230.781 663.62 232.727 669.019 231.178C671.062 230.436 670.586 229.907 669.788 229.265C663.981 228.926 663.5 228.787 658.961 227.261C657.07 225.519 656.412 225.217 659.235 225.28C665.042 227.093 664.913 229.057 670.985 227.917C673.254 225.935 673.537 225.916 671.465 224.45C667.366 224.891 660.348 220.891 646.839 220.029C649.444 217.799 650.008 214.344 652.241 210.177C652.98 208.732 652.826 208.15 650.534 207.922C644.201 214.45 639.994 218.26 630.951 225.401Z" fill="#FECFDD"/>
<path id="Vector 46" d="M483.5 120.5C473.836 125.627 471.69 129.872 468 137.5C463.191 147.52 464.956 146.464 471.5 139.5C495.38 120.134 506.406 122.904 524.5 145C526.782 149.791 527.111 149.442 526.5 145C525.309 135.229 522.993 129.823 511.5 120.5C500.567 116.355 494.434 116.363 483.5 120.5Z" fill="#55E4C8"/>
<path id="Ellipse 4" d="M507.5 125C507.5 127.121 506.908 129.019 505.977 130.374C505.045 131.73 503.807 132.5 502.5 132.5C501.193 132.5 499.955 131.73 499.023 130.374C498.092 129.019 497.5 127.121 497.5 125C497.5 122.879 498.092 120.981 499.023 119.626C499.955 118.27 501.193 117.5 502.5 117.5C503.807 117.5 505.045 118.27 505.977 119.626C506.908 120.981 507.5 122.879 507.5 125Z" fill="#1B7F64" stroke="#1E6552"/>
</g>
<g id="Carpet">
<g id="Vector 34_5" filter="url(#filter11_d_31_259)">
<path d="M270.5 265C223.858 266.262 213.925 271.784 202.5 283.5C274.883 313.231 312.276 332.653 366 378.5C416.098 412.013 448.837 417.806 510.5 419C578.461 402.266 614.584 391.188 675 368C576.733 354.954 536.089 354.234 510.5 331C453.57 294.676 423.412 267.69 371.5 212.5C361.774 224.771 354.961 231.427 341 243C322.435 253.687 307.027 258.475 270.5 265Z" fill="#0FC473"/>
</g>
<path id="Vector 37" d="M204 282.5C215.728 271.679 232.748 267.276 282 262.5C318.165 253.947 326.59 250.788 335.5 246C356.834 232.644 363.634 225.072 371.5 211.5C403.789 246.217 422.281 264.192 456.5 291.5C482.817 314.764 497.983 325.748 526 340.5C583.205 359.587 625.5 358 672 365.5" stroke="#841C8C" stroke-width="5"/>
<path id="Vector 35_5" d="M346 254.5C346.5 253.5 364.945 240.025 371 230C404.962 266.245 427.514 285.362 472 318C514.773 349.898 536.636 357.178 574 362C605.92 365.523 623.045 366.928 653 369" stroke="#24ECC0" stroke-width="7"/>
<path id="Vector 36_5" d="M651.5 370C599.34 390.71 567.314 400.578 503.5 414C441.067 413.174 408.524 403.808 357 363.5C313.575 329.773 283.954 311.988 216 283.5C274.863 283.002 302.705 275.743 345.5 253.5" stroke="#24ECC0" stroke-width="4"/>
<path id="Vector 38" d="M354.5 268C351.541 263.413 358.129 258.899 361.5 262C364.871 265.101 361.5 277.5 361.5 277.5C367.594 276.011 369.339 274.713 370.5 271.5M373.5 253.5C370.5 250.5 365 253.5 366 257.5C367 261.5 368.5 263.5 372 266.5C375.5 269.5 380.5 265.5 379.5 262.5C378.5 259.5 376.5 256.5 373.5 253.5Z" stroke="#24ECC0" stroke-width="2"/>
<path id="Vector 39" d="M497.147 406.765C493.542 405.868 494.877 400.532 498.018 400.495C501.16 400.459 505.06 408.214 505.06 408.214C507.516 404.615 507.823 403.151 506.96 401.006M500.323 390.636C497.419 390.548 495.955 394.621 498.286 396.144C500.618 397.667 502.297 397.96 505.459 397.813C508.621 397.666 509.373 393.33 507.496 392.304C505.619 391.279 503.228 390.723 500.323 390.636Z" stroke="#24ECC0" stroke-width="2"/>
<ellipse id="Ellipse 1" cx="415.504" cy="354.438" rx="55.7534" ry="20.4229" transform="rotate(34.5459 415.504 354.438)" fill="#24ECC0"/>
</g>
</g>
<g id="NoteHand1">
<g id="Vector 34_6" filter="url(#filter12_d_31_259)">
<path d="M704.79 246.693C714.62 246.273 716.696 245.076 719.066 242.568C703.707 236.538 695.759 232.567 684.281 223.078C673.608 216.177 666.687 215.064 653.682 215.016C639.409 218.768 631.829 221.222 619.168 226.311C639.929 228.737 648.501 228.755 653.972 233.569C666.095 241.04 672.542 246.63 683.669 258.094C685.679 255.475 687.094 254.05 689.999 251.563C693.878 249.249 697.11 248.189 704.79 246.693Z" fill="#0FC473"/>
</g>
<path id="Vector 35_6" d="M688.907 249.155C688.805 249.368 684.96 252.27 683.717 254.403C676.437 246.874 671.619 242.917 662.132 236.183C653.009 229.599 648.376 228.136 640.482 227.242C633.741 226.605 630.126 226.365 623.803 226.027" stroke="#24ECC0" stroke-width="2"/>
<path id="Vector 36_6" d="M624.116 225.811C635.045 221.273 641.765 219.087 655.175 216.047C668.34 216.015 675.232 217.882 686.228 226.211C695.495 233.178 701.799 236.83 716.22 242.613C703.811 242.912 697.965 244.534 689.016 249.365" stroke="#24ECC0" stroke-width="2"/>
<ellipse id="Ellipse 2_5" cx="673.924" cy="228.314" rx="11.7561" ry="4.30637" transform="rotate(-146.35 673.924 228.314)" fill="#24ECC0"/>
</g>
<g id="NoteHand2">
<g id="Vector 34_7" filter="url(#filter13_d_31_259)">
<path d="M645.883 278.16C650.769 281.456 652.196 281.618 654.231 281.253C648.975 272.881 646.558 268.139 644.404 259.481C641.716 252.357 638.777 249.357 632.527 244.705C624.312 241.434 619.786 239.919 611.874 237.865C621.015 246.423 625.14 249.482 626.063 253.75C629.247 261.665 630.364 266.653 631.646 276.138C633.547 275.591 634.736 275.408 637.021 275.244C639.714 275.509 641.649 276.148 645.883 278.16Z" fill="#0FC473"/>
</g>
<path id="Vector 35_7" d="M637.352 273.694C637.227 273.76 634.342 273.791 632.983 274.376C632.154 268.157 631.241 264.535 629.065 257.914C627.012 251.494 625.3 249.14 621.814 245.9C618.792 243.193 617.135 241.791 614.208 239.378" stroke="#24ECC0" stroke-width="2"/>
<path id="Vector 36_7" d="M614.436 239.386C621.318 241.088 625.334 242.426 632.879 245.733C639.235 250.404 641.892 253.757 644.227 261.684C646.213 268.339 647.951 272.343 652.843 280.262C646.757 275.99 643.362 274.691 637.33 273.834" stroke="#24ECC0" stroke-width="2"/>
<ellipse id="Ellipse 2_6" cx="637.548" cy="258.318" rx="7.04305" ry="2.57993" transform="rotate(-109.904 637.548 258.318)" fill="#24ECC0"/>
</g>
<g id="NoteHand3">
<g id="Vector 34_8" filter="url(#filter14_d_31_259)">
<path d="M639.252 207.478C635.942 212.355 635.776 213.781 636.135 215.817C644.522 210.585 649.272 208.182 657.936 206.053C665.068 203.386 668.076 200.455 672.746 194.219C676.042 186.014 677.569 181.493 679.647 173.586C671.062 182.703 667.99 186.818 663.72 187.729C655.796 190.89 650.805 191.993 641.316 193.247C641.857 195.15 642.037 196.339 642.195 198.625C641.922 201.317 641.277 203.25 639.252 207.478Z" fill="#0FC473"/>
</g>
<path id="Vector 35_8" d="M643.743 198.96C643.677 198.835 643.655 195.949 643.074 194.589C649.296 193.779 652.92 192.875 659.548 190.719C665.974 188.685 668.333 186.979 671.583 183.503C674.298 180.489 675.705 178.836 678.127 175.916" stroke="#24ECC0" stroke-width="2"/>
<path id="Vector 36_8" d="M678.119 176.144C676.396 183.021 675.046 187.033 671.717 194.568C667.028 200.911 663.668 203.558 655.734 205.87C649.072 207.836 645.064 209.563 637.13 214.432C641.42 208.358 642.729 204.967 643.604 198.937" stroke="#24ECC0" stroke-width="2"/>
<ellipse id="Ellipse 2_7" cx="659.119" cy="199.201" rx="7.04305" ry="2.57993" transform="rotate(-19.7374 659.119 199.201)" fill="#24ECC0"/>
</g>
</g>
<defs>
<filter id="filter0_d_31_259" x="602.865" y="126.971" width="139.003" height="164.518" filterUnits="userSpaceOnUse" color-interpolation-filters="sRGB">
<feFlood flood-opacity="0" result="BackgroundImageFix"/>
<feColorMatrix in="SourceAlpha" type="matrix" values="0 0 0 0 0 0 0 0 0 0 0 0 0 0 0 0 0 0 127 0" result="hardAlpha"/>
<feOffset dy="4"/>
<feGaussianBlur stdDeviation="2"/>
<feComposite in2="hardAlpha" operator="out"/>
<feColorMatrix type="matrix" values="0 0 0 0 0 0 0 0 0 0 0 0 0 0 0 0 0 0 0.25 0"/>
<feBlend mode="normal" in2="BackgroundImageFix" result="effect1_dropShadow_31_259"/>
<feBlend mode="normal" in="SourceGraphic" in2="effect1_dropShadow_31_259" result="shape"/>
</filter>
<filter id="filter1_i_31_259" x="606.865" y="126.971" width="131.003" height="160.518" filterUnits="userSpaceOnUse" color-interpolation-filters="sRGB">
<feFlood flood-opacity="0" result="BackgroundImageFix"/>
<feBlend mode="normal" in="SourceGraphic" in2="BackgroundImageFix" result="shape"/>
<feColorMatrix in="SourceAlpha" type="matrix" values="0 0 0 0 0 0 0 0 0 0 0 0 0 0 0 0 0 0 127 0" result="hardAlpha"/>
<feOffset dy="4"/>
<feGaussianBlur stdDeviation="2"/>
<feComposite in2="hardAlpha" operator="arithmetic" k2="-1" k3="1"/>
<feColorMatrix type="matrix" values="0 0 0 0 0 0 0 0 0 0 0 0 0 0 0 0 0 0 0.25 0"/>
<feBlend mode="normal" in2="shape" result="effect1_innerShadow_31_259"/>
</filter>
<filter id="filter2_d_31_259" x="328.851" y="58.9655" width="132.893" height="141.589" filterUnits="userSpaceOnUse" color-interpolation-filters="sRGB">
<feFlood flood-opacity="0" result="BackgroundImageFix"/>
<feColorMatrix in="SourceAlpha" type="matrix" values="0 0 0 0 0 0 0 0 0 0 0 0 0 0 0 0 0 0 127 0" result="hardAlpha"/>
<feOffset dy="4"/>
<feGaussianBlur stdDeviation="2"/>
<feComposite in2="hardAlpha" operator="out"/>
<feColorMatrix type="matrix" values="0 0 0 0 0 0 0 0 0 0 0 0 0 0 0 0 0 0 0.25 0"/>
<feBlend mode="normal" in2="BackgroundImageFix" result="effect1_dropShadow_31_259"/>
<feBlend mode="normal" in="SourceGraphic" in2="effect1_dropShadow_31_259" result="shape"/>
</filter>
<filter id="filter3_i_31_259" x="332.851" y="58.9655" width="124.893" height="137.589" filterUnits="userSpaceOnUse" color-interpolation-filters="sRGB">
<feFlood flood-opacity="0" result="BackgroundImageFix"/>
<feBlend mode="normal" in="SourceGraphic" in2="BackgroundImageFix" result="shape"/>
<feColorMatrix in="SourceAlpha" type="matrix" values="0 0 0 0 0 0 0 0 0 0 0 0 0 0 0 0 0 0 127 0" result="hardAlpha"/>
<feOffset dy="4"/>
<feGaussianBlur stdDeviation="2"/>
<feComposite in2="hardAlpha" operator="arithmetic" k2="-1" k3="1"/>
<feColorMatrix type="matrix" values="0 0 0 0 0 0 0 0 0 0 0 0 0 0 0 0 0 0 0.25 0"/>
<feBlend mode="normal" in2="shape" result="effect1_innerShadow_31_259"/>
</filter>
<filter id="filter4_d_31_259" x="294.143" y="289.393" width="169.652" height="154.467" filterUnits="userSpaceOnUse" color-interpolation-filters="sRGB">
<feFlood flood-opacity="0" result="BackgroundImageFix"/>
<feColorMatrix in="SourceAlpha" type="matrix" values="0 0 0 0 0 0 0 0 0 0 0 0 0 0 0 0 0 0 127 0" result="hardAlpha"/>
<feOffset dy="4"/>
<feGaussianBlur stdDeviation="2"/>
<feComposite in2="hardAlpha" operator="out"/>
<feColorMatrix type="matrix" values="0 0 0 0 0 0 0 0 0 0 0 0 0 0 0 0 0 0 0.25 0"/>
<feBlend mode="normal" in2="BackgroundImageFix" result="effect1_dropShadow_31_259"/>
<feBlend mode="normal" in="SourceGraphic" in2="effect1_dropShadow_31_259" result="shape"/>
</filter>
<filter id="filter5_i_31_259" x="298.143" y="289.393" width="161.652" height="150.467" filterUnits="userSpaceOnUse" color-interpolation-filters="sRGB">
<feFlood flood-opacity="0" result="BackgroundImageFix"/>
<feBlend mode="normal" in="SourceGraphic" in2="BackgroundImageFix" result="shape"/>
<feColorMatrix in="SourceAlpha" type="matrix" values="0 0 0 0 0 0 0 0 0 0 0 0 0 0 0 0 0 0 127 0" result="hardAlpha"/>
<feOffset dy="4"/>
<feGaussianBlur stdDeviation="2"/>
<feComposite in2="hardAlpha" operator="arithmetic" k2="-1" k3="1"/>
<feColorMatrix type="matrix" values="0 0 0 0 0 0 0 0 0 0 0 0 0 0 0 0 0 0 0.25 0"/>
<feBlend mode="normal" in2="shape" result="effect1_innerShadow_31_259"/>
</filter>
<filter id="filter6_d_31_259" x="879.217" y="283.854" width="53.5461" height="134.807" filterUnits="userSpaceOnUse" color-interpolation-filters="sRGB">
<feFlood flood-opacity="0" result="BackgroundImageFix"/>
<feColorMatrix in="SourceAlpha" type="matrix" values="0 0 0 0 0 0 0 0 0 0 0 0 0 0 0 0 0 0 127 0" result="hardAlpha"/>
<feOffset dx="9" dy="12"/>
<feGaussianBlur stdDeviation="2"/>
<feComposite in2="hardAlpha" operator="out"/>
<feColorMatrix type="matrix" values="0 0 0 0 0 0 0 0 0 0 0 0 0 0 0 0 0 0 0.25 0"/>
<feBlend mode="normal" in2="BackgroundImageFix" result="effect1_dropShadow_31_259"/>
<feBlend mode="normal" in="SourceGraphic" in2="effect1_dropShadow_31_259" result="shape"/>
</filter>
<filter id="filter7_d_31_259" x="99.7174" y="322.423" width="88.079" height="84.0454" filterUnits="userSpaceOnUse" color-interpolation-filters="sRGB">
<feFlood flood-opacity="0" result="BackgroundImageFix"/>
<feColorMatrix in="SourceAlpha" type="matrix" values="0 0 0 0 0 0 0 0 0 0 0 0 0 0 0 0 0 0 127 0" result="hardAlpha"/>
<feOffset dx="9" dy="12"/>
<feGaussianBlur stdDeviation="2"/>
<feComposite in2="hardAlpha" operator="out"/>
<feColorMatrix type="matrix" values="0 0 0 0 0 0 0 0 0 0 0 0 0 0 0 0 0 0 0.25 0"/>
<feBlend mode="normal" in2="BackgroundImageFix" result="effect1_dropShadow_31_259"/>
<feBlend mode="normal" in="SourceGraphic" in2="effect1_dropShadow_31_259" result="shape"/>
</filter>
<filter id="filter8_d_31_259" x="114.669" y="163.217" width="112.898" height="59.0789" filterUnits="userSpaceOnUse" color-interpolation-filters="sRGB">
<feFlood flood-opacity="0" result="BackgroundImageFix"/>
<feColorMatrix in="SourceAlpha" type="matrix" values="0 0 0 0 0 0 0 0 0 0 0 0 0 0 0 0 0 0 127 0" result="hardAlpha"/>
<feOffset dx="9" dy="12"/>
<feGaussianBlur stdDeviation="2"/>
<feComposite in2="hardAlpha" operator="out"/>
<feColorMatrix type="matrix" values="0 0 0 0 0 0 0 0 0 0 0 0 0 0 0 0 0 0 0.25 0"/>
<feBlend mode="normal" in2="BackgroundImageFix" result="effect1_dropShadow_31_259"/>
<feBlend mode="normal" in="SourceGraphic" in2="effect1_dropShadow_31_259" result="shape"/>
</filter>
<filter id="filter9_d_31_259" x="855.205" y="96.9318" width="99.7931" height="51.877" filterUnits="userSpaceOnUse" color-interpolation-filters="sRGB">
<feFlood flood-opacity="0" result="BackgroundImageFix"/>
<feColorMatrix in="SourceAlpha" type="matrix" values="0 0 0 0 0 0 0 0 0 0 0 0 0 0 0 0 0 0 127 0" result="hardAlpha"/>
<feOffset dx="9" dy="12"/>
<feGaussianBlur stdDeviation="2"/>
<feComposite in2="hardAlpha" operator="out"/>
<feColorMatrix type="matrix" values="0 0 0 0 0 0 0 0 0 0 0 0 0 0 0 0 0 0 0.25 0"/>
<feBlend mode="normal" in2="BackgroundImageFix" result="effect1_dropShadow_31_259"/>
<feBlend mode="normal" in="SourceGraphic" in2="effect1_dropShadow_31_259" result="shape"/>
</filter>
<filter id="filter10_d_31_259" x="372.226" y="196.841" width="127.012" height="61.5214" filterUnits="userSpaceOnUse" color-interpolation-filters="sRGB">
<feFlood flood-opacity="0" result="BackgroundImageFix"/>
<feColorMatrix in="SourceAlpha" type="matrix" values="0 0 0 0 0 0 0 0 0 0 0 0 0 0 0 0 0 0 127 0" result="hardAlpha"/>
<feOffset dy="4"/>
<feGaussianBlur stdDeviation="2"/>
<feComposite in2="hardAlpha" operator="out"/>
<feColorMatrix type="matrix" values="0 0 0 0 0 0 0 0 0 0 0 0 0 0 0 0 0 0 0.25 0"/>
<feBlend mode="normal" in2="BackgroundImageFix" result="effect1_dropShadow_31_259"/>
<feBlend mode="normal" in="SourceGraphic" in2="effect1_dropShadow_31_259" result="shape"/>
</filter>
<filter id="filter11_d_31_259" x="202.5" y="212.5" width="485.5" height="222.5" filterUnits="userSpaceOnUse" color-interpolation-filters="sRGB">
<feFlood flood-opacity="0" result="BackgroundImageFix"/>
<feColorMatrix in="SourceAlpha" type="matrix" values="0 0 0 0 0 0 0 0 0 0 0 0 0 0 0 0 0 0 127 0" result="hardAlpha"/>
<feOffset dx="9" dy="12"/>
<feGaussianBlur stdDeviation="2"/>
<feComposite in2="hardAlpha" operator="out"/>
<feColorMatrix type="matrix" values="0 0 0 0 0 0 0 0 0 0 0 0 0 0 0 0 0 0 0.25 0"/>
<feBlend mode="normal" in2="BackgroundImageFix" result="effect1_dropShadow_31_259"/>
<feBlend mode="normal" in="SourceGraphic" in2="effect1_dropShadow_31_259" result="shape"/>
</filter>
<filter id="filter12_d_31_259" x="619.168" y="215.016" width="112.898" height="59.0789" filterUnits="userSpaceOnUse" color-interpolation-filters="sRGB">
<feFlood flood-opacity="0" result="BackgroundImageFix"/>
<feColorMatrix in="SourceAlpha" type="matrix" values="0 0 0 0 0 0 0 0 0 0 0 0 0 0 0 0 0 0 127 0" result="hardAlpha"/>
<feOffset dx="9" dy="12"/>
<feGaussianBlur stdDeviation="2"/>
<feComposite in2="hardAlpha" operator="out"/>
<feColorMatrix type="matrix" values="0 0 0 0 0 0 0 0 0 0 0 0 0 0 0 0 0 0 0.25 0"/>
<feBlend mode="normal" in2="BackgroundImageFix" result="effect1_dropShadow_31_259"/>
<feBlend mode="normal" in="SourceGraphic" in2="effect1_dropShadow_31_259" result="shape"/>
</filter>
<filter id="filter13_d_31_259" x="611.874" y="237.865" width="55.3571" height="59.5251" filterUnits="userSpaceOnUse" color-interpolation-filters="sRGB">
<feFlood flood-opacity="0" result="BackgroundImageFix"/>
<feColorMatrix in="SourceAlpha" type="matrix" values="0 0 0 0 0 0 0 0 0 0 0 0 0 0 0 0 0 0 127 0" result="hardAlpha"/>
<feOffset dx="9" dy="12"/>
<feGaussianBlur stdDeviation="2"/>
<feComposite in2="hardAlpha" operator="out"/>
<feColorMatrix type="matrix" values="0 0 0 0 0 0 0 0 0 0 0 0 0 0 0 0 0 0 0.25 0"/>
<feBlend mode="normal" in2="BackgroundImageFix" result="effect1_dropShadow_31_259"/>
<feBlend mode="normal" in="SourceGraphic" in2="effect1_dropShadow_31_259" result="shape"/>
</filter>
<filter id="filter14_d_31_259" x="636.002" y="173.586" width="56.6444" height="58.2306" filterUnits="userSpaceOnUse" color-interpolation-filters="sRGB">
<feFlood flood-opacity="0" result="BackgroundImageFix"/>
<feColorMatrix in="SourceAlpha" type="matrix" values="0 0 0 0 0 0 0 0 0 0 0 0 0 0 0 0 0 0 127 0" result="hardAlpha"/>
<feOffset dx="9" dy="12"/>
<feGaussianBlur stdDeviation="2"/>
<feComposite in2="hardAlpha" operator="out"/>
<feColorMatrix type="matrix" values="0 0 0 0 0 0 0 0 0 0 0 0 0 0 0 0 0 0 0.25 0"/>
<feBlend mode="normal" in2="BackgroundImageFix" result="effect1_dropShadow_31_259"/>
<feBlend mode="normal" in="SourceGraphic" in2="effect1_dropShadow_31_259" result="shape"/>
</filter>
<clipPath id="clip0_31_259">
<rect width="51.9798" height="51.9798" fill="white" transform="translate(666.994 134) rotate(16.7659)"/>
</clipPath>
<clipPath id="clip1_31_259">
<rect width="42.9451" height="42.9451" fill="white" transform="translate(316.68 352.759) rotate(-60.358)"/>
</clipPath>
</defs>
</svg>
